<svg width="25" height="25" viewBox="0 0 25 25" fill="none" xmlns="http://www.w3.org/2000/svg">
<path d="M12.5 24.0945C6.10669 24.0945 0.905518 18.8934 0.905518 12.5C0.905518 6.10664 6.10669 0.905472 12.5 0.905472C18.893 0.905472 24.0946 6.10664 24.0946 12.5C24.0946 18.8934 18.893 24.0945 12.5 24.0945ZM12.5 2.46797C6.96841 2.46797 2.46802 6.96836 2.46802 12.5C2.46802 18.0316 6.96841 22.532 12.5 22.532C18.0317 22.532 22.5321 18.0316 22.5321 12.5C22.5321 6.96836 18.0317 2.46797 12.5 2.46797Z" fill="#919CAA"/>
<path d="M12.5513 19.5512C9.02986 19.5512 6.28259 17.6609 6.24002 17.6309C5.88728 17.3824 5.80252 16.8953 6.05095 16.5422C6.29861 16.1898 6.78572 16.1047 7.13845 16.3523C7.37205 16.5152 12.8447 20.243 17.8002 15.9613C18.1267 15.6785 18.6201 15.7152 18.9021 16.0418C19.1842 16.3684 19.1482 16.8617 18.8217 17.1437C16.7138 18.9648 14.5123 19.5512 12.5513 19.5512Z" fill="#919CAA"/>
<path d="M8.5 11.5152C9.3651 11.5152 10.0664 10.8139 10.0664 9.94884C10.0664 9.08374 9.3651 8.38243 8.5 8.38243C7.6349 8.38243 6.93359 9.08374 6.93359 9.94884C6.93359 10.8139 7.6349 11.5152 8.5 11.5152Z" fill="#919CAA"/>
<path d="M16.5 11.5152C17.3651 11.5152 18.0664 10.8139 18.0664 9.94884C18.0664 9.08374 17.3651 8.38243 16.5 8.38243C15.6349 8.38243 14.9336 9.08374 14.9336 9.94884C14.9336 10.8139 15.6349 11.5152 16.5 11.5152Z" fill="#919CAA"/>
</svg>
