<svg width="25" height="25" viewBox="0 0 25 25" fill="none" xmlns="http://www.w3.org/2000/svg">
<path d="M12.5 21.0938C10.428 21.0938 8.44086 20.2706 6.97573 18.8055C5.5106 17.3404 4.6875 15.3533 4.6875 13.2812C4.6875 13.074 4.76981 12.8753 4.91632 12.7288C5.06284 12.5823 5.26155 12.5 5.46875 12.5C5.67595 12.5 5.87466 12.5823 6.02118 12.7288C6.16769 12.8753 6.25 13.074 6.25 13.2812C6.25 14.9389 6.90848 16.5286 8.08058 17.7007C9.25268 18.8728 10.8424 19.5312 12.5 19.5312C14.1576 19.5312 15.7473 18.8728 16.9194 17.7007C18.0915 16.5286 18.75 14.9389 18.75 13.2812C18.75 13.074 18.8323 12.8753 18.9788 12.7288C19.1253 12.5823 19.324 12.5 19.5312 12.5C19.7385 12.5 19.9372 12.5823 20.0837 12.7288C20.2302 12.8753 20.3125 13.074 20.3125 13.2812C20.3125 15.3533 19.4894 17.3404 18.0243 18.8055C16.5591 20.2706 14.572 21.0938 12.5 21.0938Z" fill="#919CAA"/>
<path d="M12.5 24.2188C12.2928 24.2188 12.0941 24.1364 11.9476 23.9899C11.8011 23.8434 11.7188 23.6447 11.7188 23.4375V20.3125C11.7188 20.1053 11.8011 19.9066 11.9476 19.7601C12.0941 19.6136 12.2928 19.5312 12.5 19.5312C12.7072 19.5312 12.9059 19.6136 13.0524 19.7601C13.1989 19.9066 13.2812 20.1053 13.2812 20.3125V23.4375C13.2812 23.6447 13.1989 23.8434 13.0524 23.9899C12.9059 24.1364 12.7072 24.2188 12.5 24.2188Z" fill="#919CAA"/>
<path d="M12.5 17.9688C11.2568 17.9688 10.0645 17.4749 9.18544 16.5958C8.30636 15.7167 7.8125 14.5245 7.8125 13.2812V5.46875C7.8125 4.22555 8.30636 3.03326 9.18544 2.15419C10.0645 1.27511 11.2568 0.78125 12.5 0.78125C13.7432 0.78125 14.9355 1.27511 15.8146 2.15419C16.6936 3.03326 17.1875 4.22555 17.1875 5.46875V13.2812C17.1875 14.5245 16.6936 15.7167 15.8146 16.5958C14.9355 17.4749 13.7432 17.9688 12.5 17.9688ZM12.5 2.34375C11.6712 2.34375 10.8763 2.67299 10.2903 3.25904C9.70424 3.84509 9.375 4.63995 9.375 5.46875V13.2812C9.375 14.1101 9.70424 14.9049 10.2903 15.491C10.8763 16.077 11.6712 16.4062 12.5 16.4062C13.3288 16.4062 14.1237 16.077 14.7097 15.491C15.2958 14.9049 15.625 14.1101 15.625 13.2812V5.46875C15.625 4.63995 15.2958 3.84509 14.7097 3.25904C14.1237 2.67299 13.3288 2.34375 12.5 2.34375Z" fill="#919CAA"/>
</svg>
