<svg width="30" height="30" viewBox="0 0 30 30" fill="none" xmlns="http://www.w3.org/2000/svg">
<path d="M21.439 26.3672H8.02744C7.24902 26.3663 6.50274 26.0566 5.95231 25.5062C5.40188 24.9558 5.09224 24.2095 5.09131 23.4311V5.74863C5.09224 4.97021 5.40188 4.22393 5.95231 3.6735C6.50274 3.12307 7.24902 2.81343 8.02744 2.8125H16.8224C16.9378 2.81245 17.0521 2.83514 17.1588 2.87927C17.2655 2.92341 17.3624 2.98812 17.444 3.06973L24.1179 9.74238C24.1995 9.82404 24.2642 9.92097 24.3083 10.0276C24.3525 10.1343 24.3751 10.2486 24.3751 10.3641V23.4305C24.3743 24.209 24.0648 24.9554 23.5143 25.506C22.9639 26.0565 22.2175 26.3663 21.439 26.3672ZM8.02744 4.57031C7.71503 4.57062 7.4155 4.69487 7.19459 4.91578C6.97367 5.13669 6.84943 5.43622 6.84912 5.74863V23.4311C6.84943 23.7435 6.97367 24.043 7.19459 24.2639C7.4155 24.4848 7.71503 24.6091 8.02744 24.6094H21.439C21.7514 24.6091 22.0509 24.4848 22.2718 24.2639C22.4927 24.043 22.617 23.7435 22.6173 23.4311V10.7279L16.4597 4.57031H8.02744Z" fill="#919CAA"/>
<path d="M23.4961 11.243H18.8807C18.1023 11.242 17.356 10.9324 16.8056 10.382C16.2552 9.83154 15.9455 9.08526 15.9446 8.30684V3.69141C15.9446 3.45831 16.0372 3.23475 16.202 3.06993C16.3668 2.9051 16.5904 2.8125 16.8235 2.8125C17.0566 2.8125 17.2801 2.9051 17.445 3.06993C17.6098 3.23475 17.7024 3.45831 17.7024 3.69141V8.30684C17.7027 8.61925 17.8269 8.91878 18.0479 9.13969C18.2688 9.3606 18.5683 9.48485 18.8807 9.48516H23.4961C23.7292 9.48516 23.9528 9.57775 24.1176 9.74258C24.2825 9.90741 24.375 10.131 24.375 10.3641C24.375 10.5972 24.2825 10.8207 24.1176 10.9855C23.9528 11.1504 23.7292 11.243 23.4961 11.243Z" fill="#919CAA"/>
<path d="M13.54 23.4574C12.8667 23.4566 12.2213 23.1888 11.7452 22.7128C11.2691 22.2367 11.0013 21.5912 11.0005 20.918V14.8506C10.9943 14.3564 11.0863 13.8659 11.2712 13.4075C11.456 12.9491 11.73 12.532 12.0773 12.1804C12.4246 11.8287 12.8382 11.5495 13.2943 11.3589C13.7503 11.1684 14.2396 11.0702 14.7338 11.0702C15.2281 11.0702 15.7174 11.1684 16.1734 11.3589C16.6294 11.5495 17.0431 11.8287 17.3904 12.1804C17.7377 12.532 18.0117 12.9491 18.1965 13.4075C18.3813 13.8659 18.4733 14.3564 18.4671 14.8506V20.1105C18.4671 20.3436 18.3745 20.5672 18.2097 20.732C18.0449 20.8969 17.8213 20.9895 17.5882 20.9895C17.3551 20.9895 17.1316 20.8969 16.9668 20.732C16.8019 20.5672 16.7093 20.3436 16.7093 20.1105V14.8506C16.7138 14.5883 16.6661 14.3277 16.5688 14.0841C16.4716 13.8405 16.3268 13.6186 16.1429 13.4316C15.959 13.2445 15.7397 13.0959 15.4978 12.9945C15.2559 12.893 14.9962 12.8408 14.7338 12.8408C14.4715 12.8408 14.2118 12.893 13.9699 12.9945C13.728 13.0959 13.5087 13.2445 13.3248 13.4316C13.1409 13.6186 12.9961 13.8405 12.8988 14.0841C12.8016 14.3277 12.7538 14.5883 12.7584 14.8506V20.918C12.7639 21.1216 12.8488 21.3151 12.9948 21.4572C13.1408 21.5993 13.3365 21.6788 13.5403 21.6788C13.744 21.6788 13.9397 21.5993 14.0858 21.4572C14.2318 21.3151 14.3166 21.1216 14.3222 20.918V14.9754C14.3222 14.7423 14.4148 14.5187 14.5796 14.3539C14.7445 14.1891 14.968 14.0965 15.2011 14.0965C15.4342 14.0965 15.6578 14.1891 15.8226 14.3539C15.9874 14.5187 16.08 14.7423 16.08 14.9754V20.918C16.0793 21.5913 15.8114 22.2369 15.3352 22.713C14.859 23.1891 14.2134 23.4568 13.54 23.4574Z" fill="#919CAA"/>
</svg>
