<svg width="30" height="30" viewBox="0 0 30 30" fill="none" xmlns="http://www.w3.org/2000/svg">
<path d="M17.1625 26.25C16.9427 26.6288 16.6273 26.9433 16.2478 27.1619C15.8683 27.3805 15.438 27.4956 15 27.4956C14.562 27.4956 14.1317 27.3805 13.7522 27.1619C13.3727 26.9433 13.0573 26.6288 12.8375 26.25M27.5 21.25H2.5C3.49456 21.25 4.44839 20.8549 5.15165 20.1517C5.85491 19.4484 6.25 18.4946 6.25 17.5V11.25C6.25 8.92936 7.17187 6.70376 8.81282 5.06282C10.4538 3.42187 12.6794 2.5 15 2.5C17.3206 2.5 19.5462 3.42187 21.1872 5.06282C22.8281 6.70376 23.75 8.92936 23.75 11.25V17.5C23.75 18.4946 24.1451 19.4484 24.8484 20.1517C25.5516 20.8549 26.5054 21.25 27.5 21.25V21.25Z" stroke="#919CAA" stroke-width="2" stroke-linecap="round" stroke-linejoin="round"/>
</svg>
