<svg width="21" height="21" viewBox="0 0 21 21" fill="none" xmlns="http://www.w3.org/2000/svg">
<path d="M3.8999 3.9V17.1C3.8999 17.5376 4.07374 17.9573 4.38318 18.2667C4.69261 18.5762 5.11229 18.75 5.5499 18.75H15.4499C15.8875 18.75 16.3072 18.5762 16.6166 18.2667C16.9261 17.9573 17.0999 17.5376 17.0999 17.1V7.48215C17.0999 7.26234 17.0559 7.04474 16.9706 6.84215C16.8854 6.63956 16.7604 6.45605 16.6033 6.3024L12.9403 2.72025C12.632 2.41884 12.218 2.25005 11.7869 2.25H5.5499C5.11229 2.25 4.69261 2.42384 4.38318 2.73327C4.07374 3.04271 3.8999 3.46239 3.8999 3.9V3.9Z" stroke="#919CAA" stroke-width="2" stroke-linecap="round" stroke-linejoin="round"/>
<path d="M8.0249 11.325H12.9749" stroke="#919CAA" stroke-width="2" stroke-linecap="round" stroke-linejoin="round"/>
<path d="M8.0249 14.625H10.4999" stroke="#919CAA" stroke-width="2" stroke-linecap="round" stroke-linejoin="round"/>
<path d="M12.1499 2.25V5.55C12.1499 5.98761 12.3237 6.40729 12.6332 6.71673C12.9426 7.02616 13.3623 7.2 13.7999 7.2H17.0999" stroke="#919CAA" stroke-width="2" stroke-linejoin="round"/>
</svg>
